# xmcd
#
# Track frame offsets:
#	150
#	22322
#	40077
#	65390
#	93142
#	112515
#	132970
#	159845
#	182190
#	203365
#	220950
#	245672
#	269445
#	316800
#
# Disc length: 4244 seconds
#
# Revision: 3
# Processed by: cddbd v1.4PL0 Copyright (c) Steve Scherf et al.
# Submitted via: dBpowerAMP V4.0
#
DISCID=b710920e
DTITLE=Steel Pulse - Rastafari Centennial Live in Paris - Elysse Mo
DYEAR=1992
DGENRE=Reggae
TTITLE0=State of Emergency
TTITLE1=Roller Skates
TTITLE2=K.K.K.
TTITLE3=Blues Dance Raid
TTITLE4=Taxi Driver
TTITLE5=Soldiers
TTITLE6=Stepping Out
TTITLE7=Chant a Psalm
TTITLE8=Gang Warfare
TTITLE9=Stay Wid de Ridim
TTITLE10=Makka Medley: Makka Splaff-Drugs Squad-Handsworth Revolution
TTITLE11=Ravers (includes Dungeons)
TTITLE12=Rally Round
TTITLE13=Reprise
EXTD=
EXTT0=
EXTT1=
EXTT2=
EXTT3=
EXTT4=
EXTT5=
EXTT6=
EXTT7=
EXTT8=
EXTT9=
EXTT10=
EXTT11=
EXTT12=
EXTT13=
PLAYORDER=
